<svg width="1133" height="190" viewBox="0 0 1133 190" fill="none" xmlns="http://www.w3.org/2000/svg">
<path fill-rule="evenodd" clip-rule="evenodd" d="M8.53431 2.08949V21.104C8.53431 34.0028 8.03373 44.0104 6.75443 52.6838C5.86457 58.5771 4.47414 64.0258 3.08354 69.1408L0.246948 69.3632L0.580665 95.0494H4.36268L4.6964 77.0357H28.3344L28.6681 95.0494H32.4503L32.784 69.3632L29.5024 69.1408V2.08982L8.53431 2.08949ZM13.0395 10.0956H24.6638V69.0298H8.08929C9.39415 64.3511 10.4157 59.5981 11.1483 54.7966C12.4832 46.3457 13.0393 36.2268 13.0393 24.2177L13.0395 10.0956ZM38.9025 2.08949V77.036H43.7414V2.08949H38.9025ZM78.2249 4.4246C76.89 3.09025 74.2203 0.866389 69.4929 0.866389C57.3122 0.866389 49.9704 18.5465 49.9704 39.6739C49.9704 63.9149 57.9796 78.2591 68.6027 78.2591C73.0523 78.2591 76.3337 76.3688 78.1692 74.5896L77.2793 67.1395C75.1102 69.0298 72.3849 70.1418 69.4927 70.1418C60.9274 70.1418 55.4766 57.799 55.2543 42.6762H74.4431V34.8924H55.1983C55.977 20.4369 61.1494 8.87265 69.6592 8.87265C72.5514 8.87265 75.221 10.207 77.0564 11.9862L78.2249 4.4246ZM93.2957 77.036H98.1902V10.3186H109.648V2.08949H81.8946V10.3181H93.2957V77.036ZM113.819 2.08949V77.036H118.992L130.727 39.7852C133.286 31.4455 135.844 22.7722 137.68 14.5435L137.847 14.6547C137.457 24.1064 137.402 33.002 137.402 45.1226V77.036H141.962V2.08949H137.123L124.999 40.6747C122.274 49.5704 119.938 57.6876 118.047 65.4715L117.935 65.3603C118.269 55.3527 118.38 45.5674 118.38 33.6695V2.08949H113.819ZM149.805 2.08949V27.3312C149.805 45.6785 155.922 49.904 160.873 49.904C164.155 49.904 167.269 48.2361 169.883 45.2338H169.994V77.036H174.889V2.08949H169.994V37.6724C168.048 40.1188 165.212 41.8979 162.597 41.8979C157.314 41.8979 154.645 36.1157 154.645 25.8858V2.08949H149.805ZM183.287 2.08949V77.036H188.126V41.8979H206.257V77.036H211.153V2.08949H206.257V33.4467H188.126V2.08949H183.287ZM238.906 53.4619L242.911 77.0357H248.083L235.291 2.08949H229.451L216.714 77.036H221.72L225.613 53.4622L238.906 53.4619ZM226.614 45.9007L230.285 24.2175C231.007 19.6584 231.619 15.0994 232.175 10.6515H232.287C232.842 14.9881 233.4 19.436 234.234 24.3286L237.905 45.9008L226.614 45.9007ZM266.993 2.08915V21.1036C266.993 34.0024 266.493 44.01 265.213 52.6835C264.324 58.5768 262.934 64.0254 261.544 69.1405L258.707 69.3628L259.041 95.0491H262.822L263.156 77.0353H286.794L287.128 95.0491H290.909L291.243 69.3628L287.962 69.1405V2.08949L266.993 2.08915ZM271.499 10.0952H283.124V69.0298H266.548C267.853 64.3512 268.875 59.5981 269.608 54.7966C270.943 46.3457 271.499 36.2268 271.499 24.2177V10.0952ZM312.045 0.866056C302.034 0.866056 294.637 16.4336 294.637 40.2293C294.637 62.9133 301.59 78.2583 311.489 78.2583C321.055 78.2583 328.898 64.5812 328.898 38.7836C328.898 16.545 322.279 0.866056 312.045 0.866056ZM311.823 8.7609C319.887 8.7609 323.78 24.3284 323.78 39.2287C323.78 56.2417 319.442 70.3638 311.766 70.3638C304.148 70.3638 299.809 56.0195 299.809 40.0073C299.81 23.5505 303.814 8.7609 311.823 8.7609ZM335.183 2.08915V76.8127C336.795 77.2575 339.355 77.7023 342.747 77.7023C347.865 77.7023 352.925 75.3672 355.984 69.3627C357.931 65.4709 359.099 60.1335 359.099 53.128C359.099 44.3435 357.152 38.4502 354.315 34.7807C351.702 31.3336 348.198 29.7769 344.638 29.7769C343.415 29.7769 341.19 29.9994 340.022 30.333V10.2068H356.208V2.08949L335.183 2.08915ZM340.022 37.783C341.245 37.5605 342.747 37.3381 343.86 37.3381C346.53 37.3381 349.033 38.4501 350.978 41.1188C352.814 43.6763 354.038 47.5683 354.038 53.3505C354.038 58.0207 353.259 61.6902 351.979 64.3589C350.144 68.2508 347.085 70.1411 344.082 70.1411C342.413 70.1411 341.134 70.0298 340.022 69.5852V37.783ZM384.517 53.4616L388.521 77.0353H393.694L380.903 2.08949H375.063L362.327 77.036H367.331L371.225 53.4622L384.517 53.4616ZM372.226 45.9003L375.897 24.2172C376.619 19.658 377.232 15.0991 377.787 10.6512H377.899C378.455 14.9878 379.01 19.4357 379.845 24.3282L383.516 45.9005L372.226 45.9003ZM399.2 76.8128C400.814 77.2577 403.372 77.7025 406.709 77.7025C412.828 77.7025 417.054 75.4785 419.669 70.6972C421.559 67.0277 422.839 62.135 422.839 55.6858C422.839 44.5661 418.668 38.6728 415.109 36.8935V36.6711C419.056 33.7799 421.449 27.4418 421.449 20.2141C421.449 14.3206 420.281 9.87291 418.334 6.98171C415.998 3.201 412.883 1.53306 408.044 1.53306C404.652 1.53306 401.314 2.20024 399.2 3.08975V76.8128ZM404.039 9.65024C404.818 9.31665 406.098 8.98307 408.322 8.98307C413.216 8.98307 416.554 12.43 416.554 21.2147C416.554 28.4424 413.55 33.7798 408.434 33.7798H404.039V9.65024ZM404.039 41.1188H408.044C413.328 41.1188 417.722 45.3442 417.722 55.5743C417.722 66.4716 413.106 70.1411 408.101 70.1411C406.375 70.1411 404.985 70.0298 404.039 69.6963V41.1188ZM429.347 2.08915V77.036H434.129V42.6765H435.687C442.028 42.6765 444.419 49.4595 446.143 59.3559C447.144 65.2494 448.202 71.9211 449.536 77.036H454.764C453.096 70.3643 452.039 63.47 450.648 55.7973C448.702 45.6785 446.309 38.1172 440.136 36.4493L454.319 2.08982H448.479L435.63 35.3376H434.129V2.08949L429.347 2.08915ZM479.124 53.4616L483.128 77.0353H488.301L475.51 2.08949H469.67L456.934 77.036H461.939L465.832 53.4622L479.124 53.4616ZM466.833 45.9003L470.504 24.2172C471.226 19.658 471.839 15.0991 472.394 10.6512H472.506C473.062 14.9878 473.617 19.4357 474.452 24.3282L478.123 45.9005L466.833 45.9003ZM507.213 2.08882V21.1033C507.213 34.0021 506.712 44.0097 505.432 52.6831C504.543 58.5765 503.151 64.0251 501.761 69.1402L498.925 69.3625L499.259 95.0487H503.041L503.375 77.035H527.012L527.346 95.0487H531.129L531.462 69.3625L528.18 69.1402V2.08915L507.213 2.08882ZM511.718 10.0949H523.341V69.0298H506.767C508.073 64.3513 509.094 59.5982 509.826 54.7966C511.161 46.3457 511.718 36.2268 511.718 24.2177V10.0949ZM552.265 0.865723C542.253 0.865723 534.856 16.4332 534.856 40.229C534.856 62.9129 541.808 78.2579 551.707 78.2579C561.275 78.2579 569.117 64.5809 569.117 38.7832C569.118 16.545 562.498 0.865723 552.265 0.865723ZM552.041 8.76056C560.107 8.76056 564 24.3281 564 39.2284C564 56.2414 559.661 70.3634 551.986 70.3634C544.365 70.3634 540.029 56.0192 540.029 40.007C540.029 23.5505 544.032 8.76056 552.041 8.76056ZM584.134 77.0353H588.973V47.0125C590.085 47.5686 591.42 47.6797 592.866 47.6797C597.593 47.6797 601.765 44.8999 604.323 39.4512C606.215 35.5593 607.216 30.2219 607.216 23.4391C607.216 16.7673 605.991 11.3187 603.934 7.76047C601.71 3.75742 598.206 1.53356 593.422 1.53356C590.268 1.50755 587.131 1.99577 584.134 2.979V77.0353ZM588.973 9.98433C589.808 9.53949 591.42 9.2059 593.534 9.2059C598.873 9.2059 602.377 13.9874 602.377 23.8837C602.377 34.2249 598.816 39.8959 592.978 39.8959C591.364 39.8959 590.03 39.6736 588.973 39.1177V9.98433ZM628.407 53.4621L632.412 77.0358H637.584L624.792 2.08949H618.951L606.215 77.036H611.221L615.114 53.4622L628.407 53.4621ZM616.115 45.9008L619.785 24.2177C620.508 19.6585 621.12 15.0996 621.676 10.6517H621.788C622.343 14.9883 622.901 19.4362 623.735 24.3287L627.406 45.901L616.115 45.9008ZM643.091 2.08949V77.036H668.787L669.121 95.0497H672.959L673.292 69.3635L670.01 69.1412V2.09015H665.116V68.9187H647.93V2.08949H643.091ZM679.354 2.08949V77.036H684.193V2.08949H679.354ZM707.83 0.866389C697.819 0.866389 690.422 16.4339 690.422 40.2297C690.422 62.9136 697.375 78.2586 707.275 78.2586C716.841 78.2586 724.683 64.5815 724.683 38.7839C724.683 16.545 718.065 0.866389 707.83 0.866389ZM707.608 8.76123C715.673 8.76123 719.567 24.3287 719.567 39.2291C719.567 56.242 715.229 70.3641 707.553 70.3641C699.933 70.3641 695.595 56.0199 695.595 40.0077C695.595 23.5505 699.599 8.76123 707.608 8.76123ZM730.969 2.08949V77.036H735.807V41.8979H753.94V77.036H758.834V2.08949H753.94V33.4467H735.807V2.08949H730.969ZM763.117 2.08949L775.575 52.5727C776.02 54.3519 776.13 55.4638 775.742 57.1319C774.574 62.4693 772.293 69.9194 768.4 70.0305C767.566 70.0305 767.01 69.9194 766.62 69.6969L766.119 77.5919C766.731 78.0368 767.621 78.2591 768.845 78.2591C772.183 78.2591 774.907 75.1456 777.355 69.0298C779.968 62.0244 782.304 50.5712 784.363 40.5634L792.206 2.08949H787.088L781.248 33.6693C780.302 39.0067 779.579 43.3434 778.912 47.2353H778.8C777.911 42.7874 777.022 38.4508 776.075 34.0029L768.622 2.08949H763.117ZM831.082 77.036L819.402 38.5619L830.805 2.08949H825.242L820.126 19.6585C818.734 24.44 817.79 27.8871 816.734 32.3348H816.567C815.566 28.3318 814.508 24.5511 813.118 19.6585L808.167 2.08949H802.551L813.564 39.1177L802.105 77.0357H807.667L812.172 60.5785C814.119 54.018 815.175 50.0149 816.233 45.6781H816.343C817.511 50.0148 818.734 54.1291 820.682 60.4674L825.466 77.0357L831.082 77.036ZM855.779 53.4622L859.783 77.036H864.956L852.163 2.08949H846.323L833.587 77.036H838.592L842.485 53.4622H855.779ZM843.486 45.901L847.157 24.2178C847.881 19.6587 848.492 15.0997 849.048 10.6518H849.159C849.715 14.9885 850.272 19.4364 851.107 24.3289L854.778 45.9012L843.486 45.901ZM870.462 77.036H875.301V47.0132C876.414 47.5693 877.749 47.6803 879.194 47.6803C883.921 47.6803 888.092 44.9006 890.652 39.4519C892.543 35.56 893.544 30.2226 893.544 23.4397C893.544 16.768 892.321 11.3193 890.262 7.76114C888.037 3.75809 884.533 1.53423 879.751 1.53423C876.597 1.5081 873.459 1.99631 870.462 2.97967V77.036ZM875.301 9.98499C876.135 9.54016 877.749 9.20657 879.861 9.20657C885.201 9.20657 888.705 13.988 888.705 23.8844C888.705 34.2256 885.146 39.8966 879.306 39.8966C877.692 39.8966 876.357 39.6743 875.301 39.1183V9.98499ZM899.385 2.08999V27.3312C899.385 45.6785 905.502 49.904 910.453 49.904C913.734 49.904 916.849 48.2361 919.464 45.2338H919.574V77.036H924.469V2.08949H919.574V37.6724C917.628 40.1188 914.792 41.8979 912.177 41.8979C906.894 41.8979 904.224 36.1157 904.224 25.8858V2.08949L899.385 2.08999ZM928.751 2.08999L941.21 52.5732C941.654 54.3524 941.766 55.4643 941.377 57.1324C940.209 62.4698 937.928 69.9199 934.035 70.031C933.201 70.031 932.644 69.9199 932.255 69.6974L931.754 77.5924C932.367 78.0373 933.256 78.2596 934.479 78.2596C937.816 78.2596 940.543 75.1461 942.989 69.0303C945.604 62.0249 947.94 50.5717 949.997 40.5639L957.839 2.08999H952.723L946.883 33.6698C945.937 39.0072 945.215 43.3439 944.547 47.2358H944.436C943.546 42.788 942.655 38.4513 941.711 34.0034L934.257 2.08949L928.751 2.08999ZM961.844 76.8135C963.457 77.2583 966.015 77.7032 969.352 77.7032C975.471 77.7032 979.698 75.4792 982.312 70.6979C984.203 67.0284 985.483 62.1357 985.483 55.6864C985.483 44.5668 981.311 38.6735 977.75 36.8941V36.6718C981.7 33.7806 984.091 27.4424 984.091 20.2148C984.091 14.3213 982.923 9.87358 980.978 6.98238C978.642 3.20167 975.526 1.53373 970.687 1.53373C967.295 1.53373 963.958 2.2009 961.844 3.09041V76.8135ZM966.683 9.65091C967.462 9.31732 968.742 8.98373 970.966 8.98373C975.86 8.98373 979.197 12.4307 979.197 21.2154C979.197 28.443 976.194 33.7804 971.078 33.7804H966.683V9.65091ZM966.683 41.1195H970.687C975.972 41.1195 980.365 45.3449 980.365 55.575C980.365 66.4723 975.75 70.1418 970.744 70.1418C969.019 70.1418 967.629 70.0305 966.683 69.6969V41.1195ZM1011.35 53.4622L1015.35 77.036H1020.52L1007.73 2.08949H1001.89L989.154 77.036H994.159L998.052 53.4622H1011.35ZM999.053 45.901L1002.72 24.2178C1003.45 19.6587 1004.06 15.0997 1004.61 10.6518H1004.73C1005.28 14.9885 1005.84 19.4364 1006.67 24.3289L1010.34 45.9012L999.053 45.901ZM1026.03 2.08949V77.036H1030.87V41.8979H1049V77.036H1053.89V2.08949H1049V33.4467H1030.87V2.08949H1026.03ZM1062.29 2.08949V77.036H1067.13V41.8979H1085.26V77.036H1090.16V2.08949H1085.26V33.4467H1067.13V2.08949H1062.29ZM1100.34 77.036C1100.89 75.0345 1101.17 73.4776 1101.56 71.5874C1102.89 64.4708 1103.95 53.4622 1106.51 48.2363C1107.84 45.5676 1109.57 44.5668 1111.9 44.5668H1115.46V77.036H1120.3V3.09025C1117.85 2.08949 1114.52 1.53356 1111.35 1.53356C1106.62 1.53356 1102.95 3.53509 1100.61 7.3158C1098.5 10.7628 1097.17 15.9891 1097.17 22.5497C1097.17 32.7797 1100.84 39.4516 1105.45 41.0083V41.3419C1104.34 42.009 1103.23 43.3434 1102.34 45.1226C1099.28 51.2384 1098.28 61.6908 1096.67 70.253C1096.22 72.6994 1095.72 75.0345 1095.16 77.036H1100.34ZM1115.46 37.1165C1114.52 37.2276 1112.96 37.2276 1111.35 37.2276C1106.06 37.2276 1102.06 32.0014 1102.06 22.9944C1102.06 12.6532 1106.12 8.98373 1110.9 8.98373C1112.47 8.97935 1114.02 9.28155 1115.46 9.87324V37.1165ZM1130.09 77.9255C1131.86 77.9255 1132.93 75.3771 1132.93 71.504C1132.93 67.5308 1131.79 64.9715 1130.11 64.9715C1128.53 64.9715 1127.28 67.6981 1127.28 71.504C1127.28 75.3771 1128.49 77.9255 1130.09 77.9255ZM222.808 113.286V188.231H227.647V153.094H245.778V188.231H250.673V113.285H245.778V144.642H227.647V113.285L222.808 113.286ZM278.482 145.088H263.91V121.403H279.316V113.285H259.071V188.231H280.15V180.115H263.91V153.094H278.482V145.088ZM321.198 115.621C319.863 114.287 317.193 112.062 312.464 112.062C300.284 112.062 292.942 129.743 292.942 150.87C292.942 175.112 300.951 189.456 311.575 189.456C316.025 189.456 319.305 187.564 321.141 185.786L320.252 178.336C318.082 180.226 315.358 181.338 312.464 181.338C303.899 181.338 298.448 168.995 298.226 153.872H317.415V146.088H298.171C298.949 131.633 304.121 120.068 312.631 120.068C315.524 120.068 318.194 121.403 320.03 123.182L321.198 115.621ZM338.549 113.286V144.865C338.549 156.874 338.272 171.442 335.269 177.334C334.378 179.002 332.821 180.782 331.319 181.338L331.932 189.122C334.101 189.122 336.27 187.342 337.66 185.562C342.944 178.447 343.278 160.322 343.278 144.087V121.403H355.681V188.231H360.575V113.285L338.549 113.286ZM368.973 113.286V188.231H373.811V113.285L368.973 113.286ZM382.266 113.286V188.231H387.05V153.872H388.607C394.947 153.872 397.338 160.655 399.064 170.551C400.065 176.445 401.121 183.117 402.456 188.231H407.684C406.015 181.559 404.959 174.666 403.569 166.993C401.622 156.874 399.231 149.313 393.057 147.645L407.24 113.286H401.4L388.552 146.534H387.05V113.285L382.266 113.286ZM432.045 164.658L436.05 188.231H441.222L428.429 113.285H422.589L409.853 188.231H414.859L418.751 164.658H432.045ZM419.753 157.097L423.423 135.413C424.146 130.854 424.758 126.295 425.314 121.847H425.426C425.981 126.184 426.539 130.632 427.373 135.524L431.044 157.097L419.753 157.097ZM446.729 188.231H451.567V158.208C452.679 158.765 454.014 158.875 455.46 158.875C460.187 158.875 464.359 156.097 466.918 150.648C468.809 146.755 469.81 141.418 469.81 134.635C469.81 127.964 468.587 122.515 466.528 118.957C464.304 114.954 460.8 112.73 456.016 112.73C452.862 112.704 449.725 113.192 446.729 114.175V188.231ZM451.567 121.18C452.402 120.735 454.014 120.402 456.128 120.402C461.467 120.402 464.971 125.183 464.971 135.08C464.971 145.421 461.412 151.093 455.572 151.093C453.959 151.093 452.624 150.869 451.567 150.314V121.18ZM501.068 178.113C499.122 180.003 496.119 181.226 493.17 181.226C484.048 181.226 478.765 169.44 478.765 151.093C478.765 131.41 484.605 120.179 493.392 120.179C496.224 120.189 498.94 121.307 500.958 123.293L502.126 115.398C500.846 114.064 497.897 112.062 493.225 112.062C481.602 112.062 473.648 127.963 473.648 151.427C473.648 176 481.602 189.344 492.169 189.344C496.729 189.344 500.29 187.564 502.069 185.786L501.068 178.113ZM508.131 113.285V188.009C509.744 188.454 512.302 188.898 515.696 188.898C520.869 188.898 526.096 186.563 529.155 180.114C530.935 176.221 532.048 171.108 532.048 164.102C532.048 147.533 525.262 140.751 517.587 140.751C516.307 140.751 514.083 140.973 512.97 141.307V113.286L508.131 113.285ZM512.97 148.979C514.258 148.631 515.585 148.444 516.919 148.423C522.259 148.423 526.986 152.871 526.986 164.658C526.986 176.112 522.371 181.337 516.974 181.337C515.306 181.337 514.083 181.226 512.97 180.782V148.979ZM538.277 113.285V188.231H543.061V153.872H544.618C550.958 153.872 553.351 160.655 555.075 170.551C556.076 176.445 557.132 183.117 558.467 188.231H563.695C562.026 181.559 560.97 174.666 559.58 166.993C557.633 156.874 555.242 149.313 549.068 147.645L563.251 113.286H557.411L544.563 146.534H543.061V113.285H538.277ZM568.423 113.285V188.231H573.596L585.331 150.981C587.889 142.641 590.449 133.968 592.284 125.739L592.451 125.85C592.061 135.302 592.006 144.198 592.006 156.318V188.231H596.566V113.285H591.727L579.603 151.87C576.876 160.767 574.541 168.883 572.65 176.667L572.538 176.556C572.872 166.548 572.984 156.764 572.984 144.865V113.285H568.423ZM637.556 188.231H642.285L639.949 113.285H633.775L627.101 149.535C625.432 158.987 624.097 167.215 623.151 174.778H622.984C622.04 166.993 620.76 158.765 619.203 149.535L612.806 113.285H606.632L604.019 188.231H608.635L609.636 156.097C609.97 144.865 610.248 132.3 610.36 122.959H610.47C611.528 131.855 613.03 141.529 614.808 152.094L620.872 187.787H624.543L631.161 151.426C633.051 141.085 634.609 131.744 635.888 122.959H636.055C635.999 132.3 636.333 144.865 636.612 155.317L637.556 188.231ZM658.358 124.85C660.361 122.292 663.308 119.957 666.144 119.957C670.205 119.957 672.875 124.182 672.875 131.744C672.875 139.416 669.037 145.532 664.087 145.532H661.862V152.871H664.087C668.871 152.871 674.265 156.097 674.265 167.327C674.265 175.555 671.207 181.56 665.643 181.56C662.585 181.56 659.248 179.336 657.246 177.001L655.967 184.562C658.802 188.009 662.363 189.456 665.755 189.456C672.597 189.456 679.326 183.227 679.326 167.661C679.326 156.874 675.488 149.981 670.205 148.868V148.646C674.599 146.644 677.936 139.639 677.936 130.41C677.936 118.845 673.431 112.062 666.923 112.062C662.864 112.062 659.581 114.397 657.024 117.733L658.358 124.85ZM705.189 164.658L709.194 188.231H714.366L701.573 113.285H695.733L682.997 188.231H688.003L691.895 164.658H705.189ZM692.897 157.097L696.567 135.413C697.292 130.854 697.902 126.295 698.46 121.847H698.57C699.127 126.184 699.683 130.632 700.517 135.524L704.188 157.097L692.897 157.097ZM744.234 178.113C742.287 180.003 739.283 181.226 736.336 181.226C727.214 181.226 721.93 169.44 721.93 151.093C721.93 131.41 727.77 120.179 736.558 120.179C739.39 120.189 742.105 121.307 744.122 123.293L745.29 115.398C744.012 114.064 741.064 112.062 736.391 112.062C724.766 112.062 716.814 127.963 716.814 151.426C716.814 176 724.766 189.344 735.335 189.344C739.896 189.344 743.455 187.564 745.235 185.786L744.234 178.113ZM765.37 112.062C755.358 112.062 747.96 127.629 747.96 151.426C747.96 174.11 754.913 189.455 764.812 189.455C774.378 189.455 782.221 175.778 782.221 149.98C782.221 127.741 775.603 112.062 765.37 112.062ZM765.146 119.957C773.211 119.957 777.105 135.524 777.105 150.426C777.105 167.438 772.767 181.559 765.091 181.559C757.471 181.559 753.132 167.215 753.132 151.203C753.132 134.746 757.137 119.957 765.146 119.957ZM788.506 113.285V188.009C790.12 188.454 792.678 188.898 796.07 188.898C801.188 188.898 806.248 186.563 809.309 180.558C811.254 176.667 812.422 171.329 812.422 164.324C812.422 155.539 810.477 149.646 807.64 145.977C805.025 142.53 801.521 140.973 797.962 140.973C796.738 140.973 794.513 141.195 793.345 141.529V121.403H809.531V113.285L788.506 113.285ZM793.345 148.979C794.568 148.757 796.07 148.534 797.183 148.534C799.853 148.534 802.356 149.646 804.303 152.315C806.138 154.872 807.361 158.765 807.361 164.546C807.361 169.216 806.582 172.886 805.304 175.554C803.469 179.447 800.408 181.337 797.405 181.337C795.736 181.337 794.458 181.225 793.345 180.782V148.979ZM833.391 112.062C823.38 112.062 815.983 127.629 815.983 151.426C815.983 174.11 822.934 189.455 832.836 189.455C842.402 189.455 850.244 175.778 850.244 149.98C850.244 127.741 843.625 112.062 833.391 112.062ZM833.169 119.957C841.234 119.957 845.126 135.524 845.126 150.425C845.126 167.438 840.788 181.559 833.113 181.559C825.494 181.559 821.156 167.215 821.156 151.203C821.156 134.746 825.16 119.957 833.169 119.957ZM888.9 188.231H893.627L891.291 113.285H885.117L878.443 149.535C876.775 158.987 875.44 167.215 874.493 174.777H874.327C873.382 166.993 872.102 158.765 870.546 149.535L864.148 113.285H857.976L855.362 188.231H859.979L860.98 156.097C861.313 144.865 861.59 132.3 861.702 122.959H861.814C862.87 131.855 864.372 141.529 866.151 152.094L872.214 187.787H875.885L882.503 151.426C884.395 141.085 885.952 131.744 887.232 122.959H887.398C887.342 132.3 887.675 144.865 887.954 155.317L888.9 188.231ZM902.417 189.121C904.181 189.121 905.25 186.573 905.25 182.7C905.25 178.727 904.114 176.167 902.434 176.167C900.847 176.167 899.601 178.894 899.601 182.7C899.601 186.573 900.814 189.121 902.417 189.121Z" fill="white" fill-opacity="0.2"/>
</svg>
