<svg width="24" height="10" viewBox="0 0 24 10" fill="none" xmlns="http://www.w3.org/2000/svg">
<path fill-rule="evenodd" clip-rule="evenodd" d="M5 2H19C20.6569 2 22 3.34315 22 5C22 6.65685 20.6569 8 19 8H5C3.34315 8 2 6.65685 2 5C2 3.34315 3.34315 2 5 2ZM0 5C0 2.23858 2.23858 0 5 0H19C21.7614 0 24 2.23858 24 5C24 7.76142 21.7614 10 19 10H5C2.23858 10 0 7.76142 0 5ZM6 4C5.44772 4 5 4.44772 5 5C5 5.55228 5.44772 6 6 6H18C18.5523 6 19 5.55228 19 5C19 4.44772 18.5523 4 18 4H6Z" fill="white"/>
</svg>
