<svg width="838" height="493" viewBox="0 0 838 493" fill="none" xmlns="http://www.w3.org/2000/svg">
<path d="M12 464C12 250.818 187.504 78 404 78C620.496 78 796 250.818 796 464" stroke="#F49736"/>
<path fill-rule="evenodd" clip-rule="evenodd" d="M208.891 120.719L218.791 130.619C219.962 131.79 219.962 133.69 218.791 134.861C217.619 136.033 215.72 136.033 214.548 134.861L204.649 124.962C203.477 123.79 203.477 121.891 204.649 120.719C205.82 119.548 207.72 119.548 208.891 120.719ZM203.234 119.305C205.187 117.352 208.353 117.352 210.305 119.305L220.205 129.204C222.158 131.157 222.158 134.323 220.205 136.276C218.252 138.228 215.086 138.228 213.134 136.276L203.234 126.376C201.282 124.423 201.282 121.258 203.234 119.305ZM208.184 122.84C207.794 122.45 207.16 122.45 206.77 122.84C206.379 123.231 206.379 123.864 206.77 124.255L215.255 132.74C215.646 133.13 216.279 133.13 216.669 132.74C217.06 132.349 217.06 131.716 216.669 131.326L208.184 122.84Z" fill="#F49736"/>
<path fill-rule="evenodd" clip-rule="evenodd" d="M588.649 130.619L598.548 120.719C599.72 119.548 601.619 119.548 602.791 120.719C603.962 121.891 603.962 123.79 602.791 124.962L592.891 134.861C591.72 136.033 589.82 136.033 588.649 134.861C587.477 133.69 587.477 131.79 588.649 130.619ZM587.234 136.276C585.282 134.323 585.282 131.157 587.234 129.204L597.134 119.305C599.086 117.352 602.252 117.352 604.205 119.305C606.158 121.258 606.158 124.423 604.205 126.376L594.305 136.276C592.353 138.228 589.187 138.228 587.234 136.276ZM590.77 131.326C590.379 131.716 590.379 132.349 590.77 132.74C591.16 133.131 591.794 133.131 592.184 132.74L600.669 124.255C601.06 123.864 601.06 123.231 600.669 122.84C600.279 122.45 599.646 122.45 599.255 122.84L590.77 131.326Z" fill="#113660"/>
<path fill-rule="evenodd" clip-rule="evenodd" d="M64.4065 258.745L76.5308 265.745C77.9657 266.574 78.4573 268.409 77.6289 269.843C76.8005 271.278 74.9657 271.77 73.5308 270.942L61.4065 263.942C59.9716 263.113 59.48 261.278 60.3084 259.843C61.1368 258.409 62.9716 257.917 64.4065 258.745ZM58.5764 258.843C59.9571 256.452 63.015 255.633 65.4065 257.013L77.5308 264.013C79.9223 265.394 80.7417 268.452 79.361 270.843C77.9803 273.235 74.9223 274.054 72.5308 272.674L60.4065 265.674C58.015 264.293 57.1956 261.235 58.5764 258.843ZM64.2725 260.977C63.7942 260.701 63.1826 260.865 62.9065 261.343C62.6303 261.822 62.7942 262.433 63.2725 262.709L73.6648 268.709C74.1431 268.986 74.7547 268.822 75.0308 268.343C75.307 267.865 75.1431 267.254 74.6648 266.977L64.2725 260.977Z" fill="#F49736"/>
<path fill-rule="evenodd" clip-rule="evenodd" d="M731.33 265.745L743.454 258.745C744.889 257.917 746.724 258.409 747.553 259.843C748.381 261.278 747.889 263.113 746.454 263.942L734.33 270.942C732.895 271.77 731.06 271.278 730.232 269.843C729.404 268.409 729.895 266.574 731.33 265.745ZM728.5 270.843C727.119 268.452 727.939 265.394 730.33 264.013L742.454 257.013C744.846 255.633 747.904 256.452 749.285 258.843C750.665 261.235 749.846 264.293 747.454 265.674L735.33 272.674C732.939 274.054 729.881 273.235 728.5 270.843ZM733.196 266.977C732.718 267.254 732.554 267.865 732.83 268.343C733.106 268.822 733.718 268.986 734.196 268.709L744.588 262.709C745.067 262.433 745.231 261.822 744.954 261.343C744.678 260.865 744.067 260.701 743.588 260.977L733.196 266.977Z" fill="#113660"/>
<path fill-rule="evenodd" clip-rule="evenodd" d="M5 457H19C20.6569 457 22 458.343 22 460C22 461.657 20.6569 463 19 463H5C3.34315 463 2 461.657 2 460C2 458.343 3.34315 457 5 457ZM0 460C0 457.239 2.23858 455 5 455H19C21.7614 455 24 457.239 24 460C24 462.761 21.7614 465 19 465H5C2.23858 465 0 462.761 0 460ZM6 459C5.44772 459 5 459.448 5 460C5 460.552 5.44772 461 6 461H18C18.5523 461 19 460.552 19 460C19 459.448 18.5523 459 18 459H6Z" fill="#F49736"/>
<path fill-rule="evenodd" clip-rule="evenodd" d="M789 457H803C804.657 457 806 458.343 806 460C806 461.657 804.657 463 803 463H789C787.343 463 786 461.657 786 460C786 458.343 787.343 457 789 457ZM784 460C784 457.239 786.239 455 789 455H803C805.761 455 808 457.239 808 460C808 462.761 805.761 465 803 465H789C786.239 465 784 462.761 784 460ZM790 459C789.448 459 789 459.448 789 460C789 460.552 789.448 461 790 461H802C802.552 461 803 460.552 803 460C803 459.448 802.552 459 802 459H790Z" fill="#113660"/>
<mask id="mask0" mask-type="alpha" maskUnits="userSpaceOnUse" x="404" y="0" width="434" height="493">
<rect x="404" width="434" height="493" fill="#C4C4C4"/>
</mask>
<g mask="url(#mask0)">
<path d="M12 464C12 250.818 187.504 78 404 78C620.496 78 796 250.818 796 464" stroke="#113660"/>
</g>
</svg>
