<svg width="42" height="42" viewBox="0 0 42 42" fill="none" xmlns="http://www.w3.org/2000/svg">
<path d="M42 21C42 9.40379 32.5962 0 21 0C9.40379 0 0 9.40379 0 21C0 32.5962 9.40379 42 21 42C21.1234 42 21.2461 41.9974 21.3691 41.9952V25.6476H16.8574V20.3896H21.3691V16.5203C21.3691 12.033 24.1085 9.59061 28.1114 9.59061C30.0282 9.59061 31.6759 9.73352 32.1562 9.79729V14.4872H29.396C27.2184 14.4872 26.7967 15.5222 26.7967 17.0407V20.3896H32.0037L31.325 25.6476H26.7967V41.1887C35.5743 38.6723 42 30.5855 42 21Z" fill="white" fill-opacity="0.8"/>
</svg>
